<svg width="130" height="40" viewBox="0 0 130 40" fill="none" xmlns="http://www.w3.org/2000/svg">
<g clip-path="url(#clip0_3498_54962)">
<path d="M122.011 0H7.98864C3.57664 0 0 3.57664 0 7.98864V31.3953C0 35.8073 3.57664 39.3839 7.98864 39.3839H122.011C126.423 39.3839 130 35.8073 130 31.3953V7.98864C130 3.57664 126.423 0 122.011 0Z" fill="black"/>
<path d="M37.7683 13.7052L40.0497 7.76562H40.8966L43.3279 13.7052H42.4323L41.7397 11.9063H39.2558L38.6036 13.7052H37.7689H37.7683ZM39.4821 11.2662H41.4957L40.8756 9.62103C40.6864 9.1215 40.5459 8.71103 40.4541 8.38907C40.3783 8.76967 40.2715 9.14805 40.1338 9.52367L39.4815 11.2657L39.4821 11.2662Z" fill="white"/>
<path d="M45.0374 13.7052L42.7361 7.76562H43.5869L45.1308 12.0805C45.2553 12.4263 45.3588 12.7504 45.4428 13.053C45.5347 12.7289 45.6414 12.4047 45.7631 12.0805L47.3674 7.76562H48.1695L45.8439 13.7052H45.0374Z" fill="white"/>
<path d="M47.6057 13.7052L49.8871 7.76562H50.734L53.1653 13.7052H52.2697L51.5771 11.9063H49.0932L48.441 13.7052H47.6063H47.6057ZM49.3195 11.2662H51.3331L50.713 9.62103C50.5238 9.1215 50.3833 8.71103 50.2915 8.38907C50.2157 8.76967 50.1089 9.14805 49.9712 9.52367L49.3189 11.2657L49.3195 11.2662Z" fill="white"/>
<path d="M53.9265 13.7052V7.76562H54.7126V13.7052H53.9265Z" fill="white"/>
<path d="M56.0657 13.7052V7.76562H56.8518V13.0043H59.777V13.7052H56.0657Z" fill="white"/>
<path d="M60.0608 13.7052L62.3422 7.76562H63.1891L65.6204 13.7052H64.7248L64.0322 11.9063H61.5483L60.8961 13.7052H60.0613H60.0608ZM61.7746 11.2662H63.7882L63.1681 9.62103C62.9789 9.1215 62.8384 8.71103 62.7465 8.38907C62.6708 8.76967 62.564 9.14805 62.4262 9.52367L61.774 11.2657L61.7746 11.2662Z" fill="white"/>
<path d="M66.2151 13.7052V7.76562H68.4433C68.897 7.76562 69.261 7.82592 69.5353 7.94597C69.8097 8.06601 70.0244 8.25133 70.1798 8.50082C70.3353 8.75086 70.4127 9.01197 70.4127 9.28469C70.4127 9.5386 70.3436 9.77758 70.2058 10.0016C70.0681 10.2257 69.8601 10.4066 69.5818 10.5443C69.9408 10.6494 70.2174 10.8292 70.4105 11.0831C70.6036 11.337 70.7004 11.6369 70.7004 11.9826C70.7004 12.2609 70.6417 12.5192 70.5239 12.7587C70.4066 12.9977 70.2611 13.1819 70.0885 13.3119C69.9159 13.4414 69.6991 13.5393 69.438 13.6057C69.1774 13.6721 68.8577 13.7047 68.4799 13.7047H66.2151V13.7052ZM67.0012 10.2611H68.2857C68.6342 10.2611 68.8837 10.2384 69.0353 10.1919C69.235 10.1327 69.386 10.0337 69.4872 9.89597C69.5885 9.75822 69.6393 9.58563 69.6393 9.37707C69.6393 9.18014 69.5923 9.00643 69.4977 8.85652C69.4031 8.7066 69.2682 8.60371 69.0928 8.54839C68.9174 8.49307 68.6159 8.46541 68.1894 8.46541H67.0023V10.2605L67.0012 10.2611ZM67.0012 13.0043H68.4799C68.7338 13.0043 68.9119 12.9949 69.0148 12.9761C69.1957 12.9435 69.3473 12.8898 69.4684 12.8141C69.5901 12.7383 69.6897 12.6282 69.7682 12.4838C69.8468 12.3394 69.8855 12.1723 69.8855 11.9832C69.8855 11.7619 69.8285 11.5694 69.7151 11.4056C69.6017 11.2424 69.4441 11.1274 69.2433 11.061C69.0419 10.9946 68.7526 10.962 68.3742 10.962H67.0006V13.0038L67.0012 13.0043Z" fill="white"/>
<path d="M71.7498 13.7052V7.76562H72.5358V13.0043H75.4611V13.7052H71.7498Z" fill="white"/>
<path d="M76.4131 13.7052V7.76562H80.7081V8.46652H77.1992V10.286H80.4851V10.983H77.1992V13.0049H80.8458V13.7058H76.4131V13.7052Z" fill="white"/>
<path d="M83.998 10.8161C83.998 9.83036 84.263 9.05866 84.7924 8.50049C85.3218 7.94287 86.005 7.66406 86.8426 7.66406C87.3908 7.66406 87.8853 7.79517 88.3257 8.05683C88.766 8.31904 89.1018 8.68415 89.3325 9.1527C89.5637 9.62125 89.6788 10.1529 89.6788 10.747C89.6788 11.3411 89.5571 11.8882 89.3142 12.3634C89.0714 12.8386 88.7267 13.1987 88.2809 13.4433C87.835 13.6878 87.3543 13.81 86.8387 13.81C86.2794 13.81 85.7799 13.675 85.3395 13.4051C84.8992 13.1351 84.5656 12.7661 84.3388 12.2987C84.112 11.8313 83.9986 11.3373 83.9986 10.8156L83.998 10.8161ZM84.8085 10.8283C84.8085 11.5441 85.001 12.1078 85.386 12.52C85.771 12.9321 86.254 13.1379 86.8343 13.1379C87.4146 13.1379 87.9124 12.9299 88.2947 12.5139C88.6769 12.0979 88.8678 11.5076 88.8678 10.7431C88.8678 10.2596 88.7859 9.83755 88.6227 9.47687C88.4595 9.11619 88.22 8.83683 87.9058 8.63823C87.591 8.43964 87.2381 8.34062 86.8464 8.34062C86.2899 8.34062 85.8114 8.53147 85.4103 8.91372C85.0093 9.29598 84.8085 9.93436 84.8085 10.8283Z" fill="white"/>
<path d="M90.6833 13.7052V7.76562H91.4899L94.6099 12.429V7.76562H95.3633V13.7052H94.5568L91.4368 9.03741V13.7052H90.6833Z" fill="white"/>
<path d="M37.7578 28.6423L42.0157 17.5547H43.5962L48.134 28.6423H46.4628L45.1695 25.2844H40.5332L39.3156 28.6423H37.7578ZM40.9569 24.089H44.7159L43.5586 21.0182C43.2056 20.0855 42.9434 19.3194 42.7719 18.7192C42.6309 19.43 42.4317 20.1359 42.1745 20.8368L40.9569 24.089Z" fill="white" stroke="black" stroke-width="0.110638" stroke-miterlimit="10"/>
<path d="M49.1326 31.7214V20.6111H50.3728V21.655C50.6655 21.2468 50.9957 20.9403 51.3636 20.7362C51.7315 20.532 52.1779 20.4297 52.7023 20.4297C53.3877 20.4297 53.9929 20.6062 54.5173 20.9591C55.0418 21.312 55.4373 21.8099 55.7045 22.4527C55.9717 23.0955 56.1055 23.8003 56.1055 24.5665C56.1055 25.3885 55.9578 26.1281 55.663 26.7864C55.3681 27.4442 54.9394 27.9487 54.3774 28.2988C53.8153 28.649 53.224 28.8244 52.6038 28.8244C52.1502 28.8244 51.7431 28.7287 51.3824 28.5367C51.0217 28.3453 50.7258 28.103 50.494 27.8109V31.7209H49.1326V31.7214ZM50.3656 24.6727C50.3656 25.7066 50.5747 26.47 50.9935 26.9645C51.4117 27.4585 51.9184 27.7058 52.5137 27.7058C53.1089 27.7058 53.6367 27.4502 54.0681 26.938C54.4991 26.4263 54.7148 25.6336 54.7148 24.5593C54.7148 23.485 54.5041 22.7691 54.0831 22.2602C53.6621 21.7513 53.1593 21.4962 52.574 21.4962C51.9887 21.4962 51.4809 21.7673 51.035 22.3094C50.5886 22.8516 50.3656 23.6393 50.3656 24.6727Z" fill="white" stroke="black" stroke-width="0.110638" stroke-miterlimit="10"/>
<path d="M57.7473 31.7214V20.6111H58.9876V21.655C59.2802 21.2468 59.6105 20.9403 59.9783 20.7362C60.3462 20.532 60.7926 20.4297 61.3171 20.4297C62.0025 20.4297 62.6077 20.6062 63.1321 20.9591C63.6565 21.312 64.052 21.8099 64.3192 22.4527C64.5864 23.0955 64.7203 23.8003 64.7203 24.5665C64.7203 25.3885 64.5726 26.1281 64.2777 26.7864C63.9829 27.4447 63.5542 27.9487 62.9921 28.2988C62.4301 28.649 61.8387 28.8244 61.2186 28.8244C60.765 28.8244 60.3578 28.7287 59.9971 28.5367C59.6365 28.3453 59.3405 28.103 59.1087 27.8109V31.7209H57.7473V31.7214ZM58.9798 24.6727C58.9798 25.7066 59.1889 26.47 59.6077 26.9645C60.0259 27.4585 60.5326 27.7058 61.1279 27.7058C61.7231 27.7058 62.2508 27.4502 62.6823 26.938C63.1133 26.4263 63.329 25.6336 63.329 24.5593C63.329 23.485 63.1182 22.7691 62.6973 22.2602C62.2763 21.7513 61.7734 21.4962 61.1882 21.4962C60.6029 21.4962 60.0951 21.7673 59.6492 22.3094C59.2028 22.8516 58.9798 23.6393 58.9798 24.6727Z" fill="white" stroke="black" stroke-width="0.110638" stroke-miterlimit="10"/>
<path d="M70.3397 25.0814L71.7238 24.9603C71.7891 25.5151 71.9418 25.9699 72.1813 26.3256C72.4208 26.6813 72.7926 26.9684 73.2971 27.188C73.801 27.4071 74.3686 27.5171 74.9987 27.5171C75.5585 27.5171 76.0525 27.4342 76.4813 27.2677C76.91 27.1011 77.2286 26.8732 77.4377 26.5834C77.6468 26.2935 77.7514 25.9771 77.7514 25.6341C77.7514 25.2911 77.6507 24.9824 77.4488 24.723C77.2469 24.4635 76.9144 24.2456 76.4503 24.0685C76.1527 23.9524 75.4949 23.7726 74.4765 23.5275C73.4581 23.283 72.7445 23.0523 72.3362 22.8355C71.8068 22.5583 71.4124 22.2143 71.1524 21.8032C70.8924 21.3922 70.7629 20.9325 70.7629 20.423C70.7629 19.8632 70.9217 19.3404 71.2392 18.8536C71.5568 18.3674 72.0209 17.9978 72.631 17.7456C73.2412 17.4933 73.9194 17.3672 74.6657 17.3672C75.4877 17.3672 76.2124 17.4994 76.8403 17.7644C77.4682 18.0294 77.9505 18.4188 78.2885 18.9327C78.6265 19.4472 78.808 20.0291 78.8329 20.6797L77.4261 20.7854C77.3503 20.0845 77.0948 19.5551 76.6583 19.1971C76.2224 18.8392 75.5779 18.66 74.726 18.66C73.8741 18.66 73.192 18.8226 72.7859 19.1479C72.3799 19.4732 72.1769 19.8654 72.1769 20.324C72.1769 20.7223 72.3207 21.0498 72.6078 21.307C72.8899 21.5643 73.6273 21.8276 74.82 22.0975C76.0122 22.3675 76.8303 22.6031 77.2745 22.8045C77.9201 23.1021 78.3964 23.4788 78.704 23.9352C79.0116 24.3916 79.1653 24.9171 79.1653 25.5124C79.1653 26.1076 78.9966 26.658 78.6586 27.1803C78.3206 27.7019 77.8355 28.108 77.2026 28.3978C76.5698 28.6877 75.8578 28.8326 75.0662 28.8326C74.0627 28.8326 73.2219 28.6866 72.5436 28.394C71.8654 28.1013 71.3333 27.6615 70.9477 27.074C70.5621 26.4865 70.3591 25.8222 70.3386 25.0809L70.3397 25.0814Z" fill="white" stroke="black" stroke-width="0.110638" stroke-miterlimit="10"/>
<path d="M83.9686 27.4252L84.165 28.6279C83.7817 28.7086 83.4392 28.749 83.1366 28.749C82.6426 28.749 82.2593 28.671 81.9871 28.5145C81.7149 28.3585 81.523 28.1527 81.4123 27.8982C81.3011 27.6438 81.2458 27.1077 81.2458 26.2912V21.6698H80.2473V20.611H81.2458V18.6218L82.5995 17.8047V20.6105H83.9686V21.6693H82.5995V26.3659C82.5995 26.7542 82.6233 27.0037 82.6714 27.1149C82.7195 27.2261 82.7975 27.314 82.906 27.3799C83.0144 27.4457 83.1693 27.4783 83.3712 27.4783C83.5222 27.4783 83.7214 27.4606 83.9686 27.4252Z" fill="white" stroke="black" stroke-width="0.110638" stroke-miterlimit="10"/>
<path d="M84.793 24.6273C84.793 23.1398 85.2063 22.0384 86.0333 21.322C86.7242 20.7273 87.5662 20.4297 88.5592 20.4297C89.6633 20.4297 90.5661 20.7915 91.267 21.515C91.9679 22.2386 92.3181 23.2382 92.3181 24.5139C92.3181 25.5478 92.1632 26.3605 91.8529 26.9529C91.5425 27.5454 91.0917 28.0056 90.4992 28.3331C89.9067 28.6606 89.2601 28.8249 88.5592 28.8249C87.4345 28.8249 86.5256 28.4642 85.8325 27.7434C85.1393 27.0226 84.7925 25.9837 84.7925 24.6273H84.793ZM86.1926 24.6273C86.1926 25.6557 86.4166 26.4263 86.8658 26.938C87.3145 27.4497 87.8793 27.7058 88.5597 27.7058C89.2401 27.7058 89.7978 27.4486 90.2464 26.9341C90.695 26.4196 90.9196 25.6358 90.9196 24.5819C90.9196 23.5884 90.6939 22.8361 90.2425 22.3244C89.7911 21.8127 89.2302 21.5565 88.5597 21.5565C87.8892 21.5565 87.3145 21.811 86.8658 22.3205C86.4172 22.83 86.1926 23.5989 86.1926 24.6273Z" fill="white" stroke="black" stroke-width="0.110638" stroke-miterlimit="10"/>
<path d="M93.899 28.6435V20.6111H95.1243V21.8287C95.4369 21.2589 95.7256 20.8833 95.9901 20.7019C96.255 20.5204 96.546 20.4297 96.8635 20.4297C97.3221 20.4297 97.7885 20.5757 98.2626 20.8684L97.7935 22.1313C97.4604 21.9349 97.128 21.8365 96.7949 21.8365C96.4973 21.8365 96.2301 21.9261 95.9934 22.1048C95.7561 22.284 95.5873 22.5318 95.4866 22.8499C95.3356 23.3339 95.2598 23.8633 95.2598 24.4381V28.6435H93.8984H93.899Z" fill="white" stroke="black" stroke-width="0.110638" stroke-miterlimit="10"/>
<path d="M104.571 26.0573L105.977 26.231C105.755 27.0531 105.344 27.6909 104.744 28.1445C104.144 28.5981 103.378 28.8249 102.445 28.8249C101.27 28.8249 100.339 28.4631 99.6504 27.7396C98.9623 27.016 98.6182 26.0014 98.6182 24.6953C98.6182 23.3893 98.9661 22.2956 99.662 21.5488C100.358 20.8025 101.26 20.4297 102.37 20.4297C103.48 20.4297 104.321 20.7953 105.002 21.5261C105.682 22.2574 106.023 23.2858 106.023 24.6118C106.023 24.6926 106.02 24.8137 106.015 24.9747H100.025C100.076 25.857 100.325 26.5325 100.775 27.0016C101.223 27.4707 101.783 27.7047 102.453 27.7047C102.952 27.7047 103.378 27.5736 103.732 27.3114C104.085 27.0492 104.365 26.631 104.572 26.0556L104.571 26.0573ZM100.101 23.8562H104.585C104.525 23.1807 104.354 22.674 104.071 22.336C103.637 21.8116 103.075 21.5493 102.384 21.5493C101.759 21.5493 101.234 21.7585 100.807 22.1772C100.381 22.596 100.146 23.1553 100.1 23.8562H100.101Z" fill="white" stroke="black" stroke-width="0.110638" stroke-miterlimit="10"/>
<path d="M29.7435 15.7281C29.7435 15.7281 25.7234 18.0161 27.5119 22.6922C27.9318 23.7903 28.9518 24.8729 30.394 25.4997C30.394 25.4997 30.1733 26.2841 29.6533 27.3667C29.1405 28.4338 28.2388 29.8173 27.1656 30.9691C27.1656 30.9691 26.374 31.8154 25.4811 32.0118C24.9301 32.133 24.2508 32.1374 23.4437 31.847C23.4437 31.847 22.3749 31.3585 21.6807 31.2042C20.9051 31.0316 19.8939 31.1256 19.3772 31.3059C18.86 31.4863 17.7868 31.9172 17.7868 31.9172C17.7868 31.9172 16.4077 32.591 15.0053 31.5726C13.6749 30.6062 12.1531 28.1013 11.8787 27.5525C11.6668 27.1294 10.6877 25.3586 10.2661 22.6098C10.1422 21.7999 10.1118 20.9004 10.1627 19.9279C10.3038 17.2245 11.7066 15.4006 12.7206 14.6073C13.1909 14.2394 13.5632 14.0508 13.6578 14.0038C13.9554 13.855 15.7892 12.8598 17.8736 13.5806C19.4652 14.131 19.942 14.4109 20.4753 14.4032C20.592 14.4015 20.7143 14.37 20.8354 14.3423C21.3106 14.2339 21.7681 14.0348 21.7681 14.0348C22.1006 13.8843 22.4452 13.7571 22.7915 13.6414C23.1057 13.5363 23.4243 13.4439 23.748 13.3731C23.9117 13.3372 24.0771 13.3073 24.2436 13.2863C24.4312 13.2625 24.6259 13.2459 24.8162 13.2509C25.1575 13.2581 25.4734 13.2813 25.8114 13.3294C26.1184 13.3731 26.4237 13.4428 26.7203 13.533C26.9919 13.6154 27.2574 13.7161 27.518 13.829C28.1193 14.0895 28.725 14.516 29.2826 15.1395L29.7451 15.727L29.7435 15.7281Z" fill="white"/>
<path d="M25.2061 7.24219C25.2061 7.24219 24.2358 7.24219 23.0393 7.91431C21.6956 8.66831 19.9093 10.5569 20.2069 12.9544C20.2069 12.9544 20.806 13.1071 21.7343 12.7581C21.8355 12.7199 21.9384 12.6718 22.0485 12.6253C23.3242 12.0876 24.4543 10.8518 24.9522 9.41789C25.1945 8.72032 25.3002 8.02551 25.2061 7.24219Z" fill="white"/>
</g>
<defs>
<clipPath id="clip0_3498_54962">
<rect width="130" height="39.3839" fill="white"/>
</clipPath>
</defs>
</svg>
